<?xml version="1.0" encoding="UTF-8" standalone="no"?>
<svg
   width="1200pt"
   height="1200pt"
   version="1.1"
   viewBox="0 0 1200 1200"
   id="svg9"
   sodipodi:docname="website-tab-icon.svg"
   inkscape:version="1.4 (86a8ad7, 2024-10-11)"
   xmlns:inkscape="http://www.inkscape.org/namespaces/inkscape"
   xmlns:sodipodi="http://sodipodi.sourceforge.net/DTD/sodipodi-0.dtd"
   xmlns="http://www.w3.org/2000/svg"
   xmlns:svg="http://www.w3.org/2000/svg">
  <sodipodi:namedview
     id="namedview1"
     pagecolor="#505050"
     bordercolor="#ffffff"
     borderopacity="1"
     inkscape:showpageshadow="0"
     inkscape:pageopacity="0"
     inkscape:pagecheckerboard="1"
     inkscape:deskcolor="#505050"
     inkscape:document-units="pt"
     inkscape:zoom="0.504375"
     inkscape:cx="800"
     inkscape:cy="799.00867"
     inkscape:window-width="1147"
     inkscape:window-height="1000"
     inkscape:window-x="-7"
     inkscape:window-y="0"
     inkscape:window-maximized="0"
     inkscape:current-layer="svg9" />
  <defs
     id="defs9" />
  <path
     d="m612.51 175.23c-13.836 0-25.031-11.207-25.031-25.031l-0.003907-125.17c0-13.848 11.199-25.031 25.035-25.031 13.836 0 25.031 11.184 25.031 25.031v125.16c0 13.836-11.195 25.043-25.031 25.043z"
     id="path1"
     style="fill:#ffcc00" />
  <path
     d="m837.8 250.32c-5.2422 0-10.5-1.6445-15-5.0156-11.062-8.2812-13.309-23.988-5.0156-35.027l75.121-100.13c8.2695-11.09 24-13.309 35.016-5.0156 11.09 8.2812 13.332 23.977 5.0156 35.027l-75.098 100.14c-4.918 6.5742-12.418 10.02-20.039 10.02z"
     id="path2"
     style="fill:#ffcc00" />
  <path
     d="m362.21 250.32c-7.6328 0-15.133-3.4453-20.051-10.02l-75.098-100.14c-8.3047-11.051-6.0469-26.746 5.0156-35.027 11.016-8.3164 26.723-6.0859 35.016 5.0156l75.098 100.13c8.3164 11.039 6.0703 26.746-5.0039 35.027-4.4883 3.3828-9.7461 5.0156-14.977 5.0156z"
     id="path3"
     style="fill:#ffcc00" />
  <path
     d="m186.92 425.55c-3.7578 0-7.5586-0.83984-11.16-2.6406l-100.13-50.062c-12.371-6.1914-17.387-21.227-11.195-33.602 6.2148-12.371 21.227-17.328 33.59-11.207l100.13 50.074c12.371 6.1797 17.387 21.227 11.195 33.59-4.3945 8.7852-13.227 13.848-22.43 13.848z"
     id="path4"
     style="fill:#ffcc00" />
  <path
     d="m1013.1 425.55c-9.1914 0-18-5.0625-22.402-13.836-6.1914-12.359-1.1758-27.406 11.195-33.59l100.15-50.074c12.359-6.1328 27.383-1.1758 33.574 11.207 6.1914 12.383 1.1758 27.406-11.207 33.602l-100.13 50.062c-3.6016 1.7891-7.4023 2.6289-11.184 2.6289z"
     id="path5"
     style="fill:#ffcc00" />
  <path
     d="m499.88 463.11c0 13.824-11.207 25.031-25.031 25.031-13.828 0-25.035-11.207-25.035-25.031 0-13.828 11.207-25.035 25.035-25.035 13.824 0 25.031 11.207 25.031 25.035z"
     id="path6"
     style="fill:#ffcc00" />
  <path
     d="m625.04 588.27c0 13.824-11.207 25.031-25.031 25.031-13.828 0-25.035-11.207-25.035-25.031 0-13.828 11.207-25.035 25.035-25.035 13.824 0 25.031 11.207 25.031 25.035z"
     id="path7"
     style="fill:#ffcc00" />
  <path
     d="m962.98 625.81v-25.031c0-193.55-156.91-350.46-350.47-350.46-193.52 0-350.46 156.91-350.46 350.46 0 81.742 28.223 156.74 75.098 216.31v382.91h450.61v-123.59c82.945 0 150.19-67.234 150.19-150.19v-75.109h75.098c13.836 0 25.031-11.195 25.031-25.031-0.011719-6.5156-75.098-200.27-75.098-200.27zm-300.41-25.031c0 27.648-22.402 50.062-50.062 50.062h-150.21c-27.637 0-50.062-22.414-50.062-50.062v-150.19c0-27.66 22.43-50.062 50.062-50.062h150.2c27.66 0 50.062 22.402 50.062 50.062zm125.18 150.21h-100.15c0-90.66 65.676-10.754 74.34-157.57-14.484-8.7734-24.277-24.551-24.277-42.719 0-27.637 22.43-50.062 50.09-50.062 27.648 0 50.062 22.43 50.062 50.062 0 18.168-9.7812 33.938-24.266 42.719 8.6641 146.82 74.328 66.91 74.328 157.57z"
     id="path8"
     style="fill:#ffcc00" />
  <path
     d="m562.45 525.68c0 13.824-11.207 25.031-25.031 25.031-13.824 0-25.031-11.207-25.031-25.031 0-13.824 11.207-25.031 25.031-25.031 13.824 0 25.031 11.207 25.031 25.031z"
     id="path9"
     style="fill:#ffcc00" />
</svg>
